<svg xmlns="http://www.w3.org/2000/svg" xmlns:xlink="http://www.w3.org/1999/xlink" width="256" zoomAndPan="magnify" viewBox="0 0 192 191.999996" height="256" preserveAspectRatio="xMidYMid meet" version="1.0"><defs><clipPath id="b1f067d659"><path d="M 67 67 L 124 67 L 124 124 L 67 124 Z M 67 67 " clip-rule="nonzero"/></clipPath><clipPath id="4d887e28c3"><path d="M 11.835938 26.835938 L 11.835938 164.960938 C 11.835938 173.242188 18.550781 179.960938 26.835938 179.960938 L 164.960938 179.960938 C 173.242188 179.960938 179.960938 173.242188 179.960938 164.960938 L 179.960938 26.835938 C 179.960938 18.550781 173.242188 11.835938 164.960938 11.835938 L 26.835938 11.835938 C 18.550781 11.835938 11.835938 18.550781 11.835938 26.835938 Z M 11.835938 26.835938 " clip-rule="nonzero"/></clipPath><clipPath id="8c2ad88828"><path d="M 27.734375 12.734375 L 164.058594 12.734375 C 172.34375 12.734375 179.058594 19.453125 179.058594 27.734375 L 179.058594 164.058594 C 179.058594 172.34375 172.34375 179.058594 164.058594 179.058594 L 27.734375 179.058594 C 19.453125 179.058594 12.734375 172.34375 12.734375 164.058594 L 12.734375 27.734375 C 12.734375 19.453125 19.453125 12.734375 27.734375 12.734375 Z M 27.734375 12.734375 " clip-rule="nonzero"/></clipPath><clipPath id="6609e7e0cd"><path d="M 81 32 L 159 32 L 159 110 L 81 110 Z M 81 32 " clip-rule="nonzero"/></clipPath><clipPath id="9c7d7230ff"><path d="M 11.835938 26.835938 L 11.835938 164.960938 C 11.835938 173.242188 18.550781 179.960938 26.835938 179.960938 L 164.960938 179.960938 C 173.242188 179.960938 179.960938 173.242188 179.960938 164.960938 L 179.960938 26.835938 C 179.960938 18.550781 173.242188 11.835938 164.960938 11.835938 L 26.835938 11.835938 C 18.550781 11.835938 11.835938 18.550781 11.835938 26.835938 Z M 11.835938 26.835938 " clip-rule="nonzero"/></clipPath><clipPath id="fa6ed4d56e"><path d="M 27.734375 12.734375 L 164.058594 12.734375 C 172.34375 12.734375 179.058594 19.453125 179.058594 27.734375 L 179.058594 164.058594 C 179.058594 172.34375 172.34375 179.058594 164.058594 179.058594 L 27.734375 179.058594 C 19.453125 179.058594 12.734375 172.34375 12.734375 164.058594 L 12.734375 27.734375 C 12.734375 19.453125 19.453125 12.734375 27.734375 12.734375 Z M 27.734375 12.734375 " clip-rule="nonzero"/></clipPath><clipPath id="257be8134c"><path d="M 32 81 L 110 81 L 110 159 L 32 159 Z M 32 81 " clip-rule="nonzero"/></clipPath><clipPath id="c941a8f3d9"><path d="M 11.835938 26.835938 L 11.835938 164.960938 C 11.835938 173.242188 18.550781 179.960938 26.835938 179.960938 L 164.960938 179.960938 C 173.242188 179.960938 179.960938 173.242188 179.960938 164.960938 L 179.960938 26.835938 C 179.960938 18.550781 173.242188 11.835938 164.960938 11.835938 L 26.835938 11.835938 C 18.550781 11.835938 11.835938 18.550781 11.835938 26.835938 Z M 11.835938 26.835938 " clip-rule="nonzero"/></clipPath><clipPath id="0ce105bb92"><path d="M 27.734375 12.734375 L 164.058594 12.734375 C 172.34375 12.734375 179.058594 19.453125 179.058594 27.734375 L 179.058594 164.058594 C 179.058594 172.34375 172.34375 179.058594 164.058594 179.058594 L 27.734375 179.058594 C 19.453125 179.058594 12.734375 172.34375 12.734375 164.058594 L 12.734375 27.734375 C 12.734375 19.453125 19.453125 12.734375 27.734375 12.734375 Z M 27.734375 12.734375 " clip-rule="nonzero"/></clipPath><clipPath id="3e28344897"><path d="M 11.835938 11.835938 L 179.835938 11.835938 L 179.835938 179.835938 L 11.835938 179.835938 Z M 11.835938 11.835938 " clip-rule="nonzero"/></clipPath><clipPath id="0cad32e0b7"><path d="M 11.835938 26.835938 L 11.835938 164.960938 C 11.835938 173.242188 18.550781 179.960938 26.835938 179.960938 L 164.960938 179.960938 C 173.242188 179.960938 179.960938 173.242188 179.960938 164.960938 L 179.960938 26.835938 C 179.960938 18.550781 173.242188 11.835938 164.960938 11.835938 L 26.835938 11.835938 C 18.550781 11.835938 11.835938 18.550781 11.835938 26.835938 Z M 11.835938 26.835938 " clip-rule="nonzero"/></clipPath><clipPath id="398820ea98"><path d="M 11.835938 26.835938 L 11.835938 164.953125 C 11.835938 173.238281 18.550781 179.953125 26.835938 179.953125 L 164.953125 179.953125 C 173.238281 179.953125 179.953125 173.238281 179.953125 164.953125 L 179.953125 26.835938 C 179.953125 18.550781 173.238281 11.835938 164.953125 11.835938 L 26.835938 11.835938 C 18.550781 11.835938 11.835938 18.550781 11.835938 26.835938 Z M 11.835938 26.835938 " clip-rule="nonzero"/></clipPath></defs><g clip-path="url(#b1f067d659)"><g clip-path="url(#4d887e28c3)"><g clip-path="url(#8c2ad88828)"><path stroke-linecap="round" transform="matrix(7, 0, 0, 7, 11.835095, 11.835093)" fill="none" stroke-linejoin="round" d="M 9.00012 15.00012 L 15.00012 9.00012 " stroke="#3f3f46" stroke-width="2" stroke-opacity="1" stroke-miterlimit="4"/></g></g></g><g clip-path="url(#6609e7e0cd)"><g clip-path="url(#9c7d7230ff)"><g clip-path="url(#fa6ed4d56e)"><path stroke-linecap="round" transform="matrix(7, 0, 0, 7, 11.835095, 11.835093)" fill="none" stroke-linejoin="round" d="M 11.00012 6.00012 L 11.462731 5.463848 C 11.578803 5.348335 11.699897 5.238402 11.826571 5.134607 C 11.953245 5.030812 12.084383 4.933714 12.220544 4.842754 C 12.356705 4.751795 12.49733 4.667531 12.641861 4.590522 C 12.786392 4.513513 12.933713 4.443759 13.085499 4.380701 C 13.236727 4.318201 13.390745 4.263513 13.546995 4.215522 C 13.703803 4.168089 13.862843 4.128469 14.022999 4.096661 C 14.183713 4.064853 14.345544 4.040857 14.50849 4.024674 C 14.671437 4.009049 14.834941 4.000679 14.998446 4.000679 C 15.16195 4.000679 15.325454 4.009049 15.488401 4.025232 C 15.651347 4.041415 15.813178 4.065411 15.973892 4.097219 C 16.134606 4.129027 16.293088 4.169205 16.449896 4.216638 C 16.606146 4.264071 16.760164 4.319317 16.911392 4.381817 C 17.06262 4.444317 17.210499 4.514629 17.35503 4.591638 C 17.499561 4.668647 17.639628 4.752911 17.775789 4.84387 C 17.91195 4.93483 18.043088 5.032487 18.169762 5.136281 C 18.296436 5.240076 18.41753 5.350009 18.533044 5.465522 C 18.649115 5.581594 18.759048 5.702687 18.862843 5.829361 C 18.966637 5.956036 19.063735 6.087174 19.154695 6.223335 C 19.245655 6.359495 19.329919 6.499562 19.406927 6.644094 C 19.484494 6.788625 19.554249 6.936504 19.616749 7.087732 C 19.679807 7.23896 19.734494 7.392977 19.782485 7.549785 C 19.829918 7.706035 19.869539 7.865076 19.901347 8.025232 C 19.933155 8.185946 19.957151 8.347777 19.973334 8.510723 C 19.989517 8.673669 19.997329 8.837174 19.997329 9.000678 C 19.997329 9.164183 19.989517 9.327687 19.973334 9.490634 C 19.957709 9.65358 19.933713 9.81541 19.901905 9.976125 C 19.869539 10.136839 19.829918 10.295321 19.782485 10.452129 C 19.735052 10.608379 19.679807 10.762397 19.617307 10.913625 C 19.554807 11.06541 19.485052 11.21329 19.407485 11.357263 C 19.330477 11.501794 19.246213 11.641861 19.155253 11.778022 C 19.064852 11.914183 18.967195 12.045879 18.863401 12.172553 C 18.759606 12.299227 18.649673 12.420321 18.53416 12.535834 L 18.000119 13.00012 " stroke="#3f3f46" stroke-width="2" stroke-opacity="1" stroke-miterlimit="4"/></g></g></g><g clip-path="url(#257be8134c)"><g clip-path="url(#c941a8f3d9)"><g clip-path="url(#0ce105bb92)"><path stroke-linecap="round" transform="matrix(7, 0, 0, 7, 11.835095, 11.835093)" fill="none" stroke-linejoin="round" d="M 13.00012 18.00012 L 12.602798 18.53416 C 12.485611 18.649673 12.363401 18.759606 12.235611 18.863959 C 12.107263 18.967754 11.975008 19.064852 11.837173 19.155812 C 11.699897 19.246771 11.558714 19.331035 11.413066 19.408044 C 11.267419 19.485611 11.118423 19.555365 10.96608 19.617865 C 10.813178 19.680923 10.658044 19.735611 10.500678 19.783044 C 10.342754 19.830477 10.183156 19.870655 10.021325 19.902463 C 9.859495 19.934271 9.696548 19.958267 9.532486 19.97445 C 9.368982 19.990633 9.204361 19.998446 9.03974 19.998446 C 8.874562 19.998446 8.710499 19.990633 8.546437 19.97445 C 8.382374 19.958267 8.219428 19.934271 8.057598 19.902463 C 7.896325 19.870655 7.736169 19.830477 7.578245 19.783044 C 7.420879 19.735611 7.265745 19.680923 7.113401 19.617865 C 6.9605 19.555365 6.811504 19.485611 6.665857 19.408044 C 6.520767 19.331035 6.379026 19.246771 6.24175 19.155812 C 6.103915 19.064852 5.97166 18.967754 5.84387 18.863959 C 5.715522 18.759606 5.593312 18.649673 5.476125 18.53416 C 5.359495 18.418647 5.249004 18.298111 5.144093 18.171437 C 5.039183 18.045321 4.940968 17.914182 4.849451 17.778022 C 4.757933 17.642419 4.673111 17.502352 4.594986 17.357821 C 4.517419 17.213289 4.447107 17.06541 4.383491 16.914182 C 4.320433 16.762955 4.265187 16.608937 4.217196 16.452129 C 4.169205 16.294763 4.129026 16.136281 4.09666 15.975566 C 4.064294 15.814294 4.040299 15.652464 4.024116 15.489517 C 4.007933 15.326013 4.00012 15.162508 4.00012 14.998446 C 4.00012 14.834383 4.007933 14.670879 4.024116 14.507932 C 4.040299 14.344428 4.064294 14.182598 4.09666 14.021883 C 4.129026 13.860611 4.169205 13.702129 4.217196 13.545321 C 4.265187 13.388513 4.320433 13.233937 4.383491 13.082709 C 4.447107 12.931482 4.517419 12.783602 4.594986 12.639071 C 4.673111 12.495098 4.757933 12.354473 4.849451 12.21887 C 4.940968 12.082709 5.039183 11.951571 5.144093 11.825455 C 5.249004 11.699339 5.359495 11.578245 5.476125 11.462732 L 6.00012 11.00012 " stroke="#3f3f46" stroke-width="2" stroke-opacity="1" stroke-miterlimit="4"/></g></g></g><g clip-path="url(#3e28344897)"><g clip-path="url(#0cad32e0b7)"><g clip-path="url(#398820ea98)"><path fill="#22c55e" d="M 20.835938 62.835938 L 20.835938 89.835938 L 2.835938 89.835938 L 2.835938 62.835938 Z M 20.835938 98.835938 L 20.835938 125.835938 L 2.835938 125.835938 L 2.835938 98.835938 Z M 20.835938 134.835938 L 20.835938 161.835938 L 2.835938 161.835938 L 2.835938 134.835938 Z M 21.289062 167.246094 C 22.3125 169.71875 24.160156 170.953125 26.835938 170.953125 L 36.242188 170.953125 L 36.242188 188.953125 L 26.835938 188.953125 C 21.90625 188.953125 17.40625 187.570312 13.34375 184.800781 C 9.386719 182.109375 6.492188 178.554688 4.660156 174.144531 Z M 45.242188 170.953125 L 72.242188 170.953125 L 72.242188 188.953125 L 45.242188 188.953125 Z M 81.242188 170.953125 L 108.242188 170.953125 L 108.242188 188.953125 L 81.242188 188.953125 Z M 117.242188 170.953125 L 144.242188 170.953125 L 144.242188 188.953125 L 117.242188 188.953125 Z M 153.242188 170.953125 L 164.953125 170.953125 C 167.199219 170.953125 168.90625 169.992188 170.082031 168.070312 L 185.4375 177.460938 C 183.296875 180.964844 180.441406 183.742188 176.878906 185.785156 C 173.191406 187.894531 169.21875 188.953125 164.953125 188.953125 L 153.242188 188.953125 Z M 170.953125 164.136719 L 170.953125 137.136719 L 188.953125 137.136719 L 188.953125 164.136719 Z M 170.953125 128.136719 L 170.953125 101.136719 L 188.953125 101.136719 L 188.953125 128.136719 Z M 170.953125 92.136719 L 170.953125 65.136719 L 188.953125 65.136719 L 188.953125 92.136719 Z M 170.953125 56.136719 L 170.953125 29.136719 L 188.953125 29.136719 L 188.953125 56.136719 Z M 170.367188 24.242188 C 169.273438 21.972656 167.46875 20.835938 164.953125 20.835938 L 154.726562 20.835938 L 154.726562 2.835938 L 164.953125 2.835938 C 169.644531 2.835938 173.960938 4.097656 177.898438 6.625 C 181.722656 9.078125 184.617188 12.347656 186.585938 16.433594 Z M 145.726562 20.835938 L 118.726562 20.835938 L 118.726562 2.835938 L 145.726562 2.835938 Z M 109.726562 20.835938 L 82.726562 20.835938 L 82.726562 2.835938 L 109.726562 2.835938 Z M 73.726562 20.835938 L 46.726562 20.835938 L 46.726562 2.835938 L 73.726562 2.835938 Z M 37.726562 20.835938 L 26.835938 20.835938 C 24.441406 20.835938 22.679688 21.890625 21.542969 24.003906 L 5.691406 15.472656 C 7.75 11.648438 10.632812 8.605469 14.34375 6.339844 C 18.171875 4.003906 22.335938 2.835938 26.835938 2.835938 L 37.726562 2.835938 Z M 20.835938 26.835938 L 20.835938 53.835938 L 2.835938 53.835938 L 2.835938 26.835938 Z M 20.835938 26.835938 " fill-opacity="1" fill-rule="nonzero"/></g></g></g></svg>