<svg xmlns="http://www.w3.org/2000/svg" xmlns:xlink="http://www.w3.org/1999/xlink" width="500" zoomAndPan="magnify" viewBox="0 0 375 374.999991" height="500" preserveAspectRatio="xMidYMid meet" version="1.0"><defs><g/></defs><path fill="#fff6eb" d="M 22.347656 483.722656 C 11.679688 483.722656 3 475.046875 3 464.382812 L 3 41.628906 L 362.925781 41.628906 L 362.925781 464.382812 C 362.925781 475.046875 354.246094 483.722656 343.578125 483.722656 Z M 22.347656 483.722656 " fill-opacity="1" fill-rule="nonzero"/><path fill="#fe763c" d="M 3 41.660156 L 3 22.316406 C 3 11.652344 11.679688 2.976562 22.347656 2.976562 L 343.578125 2.976562 C 354.246094 2.976562 362.925781 11.652344 362.925781 22.316406 L 362.925781 41.660156 Z M 3 41.660156 " fill-opacity="1" fill-rule="nonzero"/><path fill="#918f8d" d="M 359.949219 50.84375 L 359.949219 50.472656 L 350.570312 50.472656 L 350.570312 41.628906 L 350.199219 41.628906 L 350.199219 50.472656 L 328.25 50.472656 L 328.25 41.628906 L 327.875 41.628906 L 327.875 50.472656 L 305.925781 50.472656 L 305.925781 41.628906 L 305.554688 41.628906 L 305.554688 50.472656 L 283.601562 50.472656 L 283.601562 41.628906 L 283.230469 41.628906 L 283.230469 50.472656 L 261.28125 50.472656 L 261.28125 41.628906 L 260.90625 41.628906 L 260.90625 50.472656 L 238.957031 50.472656 L 238.957031 41.628906 L 238.585938 41.628906 L 238.585938 50.472656 L 216.632812 50.472656 L 216.632812 41.628906 L 216.261719 41.628906 L 216.261719 50.472656 L 194.3125 50.472656 L 194.3125 41.628906 L 193.9375 41.628906 L 193.9375 50.472656 L 171.988281 50.472656 L 171.988281 41.628906 L 171.617188 41.628906 L 171.617188 50.472656 L 149.664062 50.472656 L 149.664062 41.628906 L 149.292969 41.628906 L 149.292969 50.472656 L 127.34375 50.472656 L 127.34375 41.628906 L 126.96875 41.628906 L 126.96875 50.472656 L 105.019531 50.472656 L 105.019531 41.628906 L 104.648438 41.628906 L 104.648438 50.472656 L 82.695312 50.472656 L 82.695312 41.628906 L 82.324219 41.628906 L 82.324219 50.472656 L 60.371094 50.472656 L 60.371094 41.628906 L 60 41.628906 L 60 50.472656 L 38.050781 50.472656 L 38.050781 41.628906 L 37.679688 41.628906 L 37.679688 50.472656 L 15.726562 50.472656 L 15.726562 41.628906 L 15.355469 41.628906 L 15.355469 50.472656 L 5.976562 50.472656 L 5.976562 50.84375 L 15.355469 50.84375 L 15.355469 72.789062 L 5.976562 72.789062 L 5.976562 73.160156 L 15.355469 73.160156 L 15.355469 95.105469 L 5.976562 95.105469 L 5.976562 95.480469 L 15.355469 95.480469 L 15.355469 117.425781 L 5.976562 117.425781 L 5.976562 117.796875 L 15.355469 117.796875 L 15.355469 139.742188 L 5.976562 139.742188 L 5.976562 140.113281 L 15.355469 140.113281 L 15.355469 162.058594 L 5.976562 162.058594 L 5.976562 162.433594 L 15.355469 162.433594 L 15.355469 184.378906 L 5.976562 184.378906 L 5.976562 184.75 L 15.355469 184.75 L 15.355469 206.695312 L 5.976562 206.695312 L 5.976562 207.066406 L 15.355469 207.066406 L 15.355469 229.011719 L 5.976562 229.011719 L 5.976562 229.386719 L 15.355469 229.386719 L 15.355469 251.332031 L 5.976562 251.332031 L 5.976562 251.703125 L 15.355469 251.703125 L 15.355469 273.648438 L 5.976562 273.648438 L 5.976562 274.019531 L 15.355469 274.019531 L 15.355469 295.964844 L 5.976562 295.964844 L 5.976562 296.335938 L 15.355469 296.335938 L 15.355469 318.285156 L 5.976562 318.285156 L 5.976562 318.65625 L 15.355469 318.65625 L 15.355469 340.601562 L 5.976562 340.601562 L 5.976562 340.972656 L 15.355469 340.972656 L 15.355469 362.917969 L 5.976562 362.917969 L 5.976562 363.289062 L 15.355469 363.289062 L 15.355469 385.238281 L 5.976562 385.238281 L 5.976562 385.609375 L 15.355469 385.609375 L 15.355469 407.554688 L 5.976562 407.554688 L 5.976562 407.925781 L 15.355469 407.925781 L 15.355469 429.871094 L 5.976562 429.871094 L 5.976562 430.242188 L 15.355469 430.242188 L 15.355469 452.191406 L 5.976562 452.191406 L 5.976562 452.5625 L 15.355469 452.5625 L 15.355469 474.507812 L 5.976562 474.507812 L 5.976562 474.878906 L 15.355469 474.878906 L 15.355469 483.722656 L 15.726562 483.722656 L 15.726562 474.878906 L 37.679688 474.878906 L 37.679688 483.722656 L 38.050781 483.722656 L 38.050781 474.878906 L 60 474.878906 L 60 483.722656 L 60.375 483.722656 L 60.375 474.878906 L 82.324219 474.878906 L 82.324219 483.722656 L 82.695312 483.722656 L 82.695312 474.878906 L 104.648438 474.878906 L 104.648438 483.722656 L 105.019531 483.722656 L 105.019531 474.878906 L 126.96875 474.878906 L 126.96875 483.722656 L 127.34375 483.722656 L 127.34375 474.878906 L 149.292969 474.878906 L 149.292969 483.722656 L 149.664062 483.722656 L 149.664062 474.878906 L 171.617188 474.878906 L 171.617188 483.722656 L 171.988281 483.722656 L 171.988281 474.878906 L 193.9375 474.878906 L 193.9375 483.722656 L 194.3125 483.722656 L 194.3125 474.878906 L 216.261719 474.878906 L 216.261719 483.722656 L 216.632812 483.722656 L 216.632812 474.878906 L 238.585938 474.878906 L 238.585938 483.722656 L 238.957031 483.722656 L 238.957031 474.878906 L 260.910156 474.878906 L 260.910156 483.722656 L 261.28125 483.722656 L 261.28125 474.878906 L 283.230469 474.878906 L 283.230469 483.722656 L 283.601562 483.722656 L 283.601562 474.878906 L 305.554688 474.878906 L 305.554688 483.722656 L 305.925781 483.722656 L 305.925781 474.878906 L 327.878906 474.878906 L 327.878906 483.722656 L 328.25 483.722656 L 328.25 474.878906 L 350.199219 474.878906 L 350.199219 483.722656 L 350.570312 483.722656 L 350.570312 474.878906 L 359.949219 474.878906 L 359.949219 474.507812 L 350.570312 474.507812 L 350.570312 452.5625 L 359.949219 452.5625 L 359.949219 452.191406 L 350.570312 452.191406 L 350.570312 430.242188 L 359.949219 430.242188 L 359.949219 429.871094 L 350.570312 429.871094 L 350.570312 407.925781 L 359.949219 407.925781 L 359.949219 407.554688 L 350.570312 407.554688 L 350.570312 385.609375 L 359.949219 385.609375 L 359.949219 385.238281 L 350.570312 385.238281 L 350.570312 363.289062 L 359.949219 363.289062 L 359.949219 362.917969 L 350.570312 362.917969 L 350.570312 340.972656 L 359.949219 340.972656 L 359.949219 340.601562 L 350.570312 340.601562 L 350.570312 318.65625 L 359.949219 318.65625 L 359.949219 318.285156 L 350.570312 318.285156 L 350.570312 296.335938 L 359.949219 296.335938 L 359.949219 295.964844 L 350.570312 295.964844 L 350.570312 274.019531 L 359.949219 274.019531 L 359.949219 273.648438 L 350.570312 273.648438 L 350.570312 251.703125 L 359.949219 251.703125 L 359.949219 251.332031 L 350.570312 251.332031 L 350.570312 229.382812 L 359.949219 229.382812 L 359.949219 229.011719 L 350.570312 229.011719 L 350.570312 207.066406 L 359.949219 207.066406 L 359.949219 206.695312 L 350.570312 206.695312 L 350.570312 184.75 L 359.949219 184.75 L 359.949219 184.378906 L 350.570312 184.378906 L 350.570312 162.433594 L 359.949219 162.433594 L 359.949219 162.058594 L 350.570312 162.058594 L 350.570312 140.113281 L 359.949219 140.113281 L 359.949219 139.742188 L 350.570312 139.742188 L 350.570312 117.796875 L 359.949219 117.796875 L 359.949219 117.425781 L 350.570312 117.425781 L 350.570312 95.480469 L 359.949219 95.480469 L 359.949219 95.105469 L 350.570312 95.105469 L 350.570312 73.160156 L 359.949219 73.160156 L 359.949219 72.789062 L 350.570312 72.789062 L 350.570312 50.84375 Z M 327.875 50.84375 L 327.875 72.789062 L 305.925781 72.789062 L 305.925781 50.84375 Z M 171.988281 295.964844 L 171.988281 274.019531 L 193.9375 274.019531 L 193.9375 295.964844 Z M 193.9375 296.335938 L 193.9375 318.285156 L 171.988281 318.285156 L 171.988281 296.335938 Z M 171.988281 273.648438 L 171.988281 251.703125 L 193.9375 251.703125 L 193.9375 273.648438 Z M 171.988281 251.332031 L 171.988281 229.386719 L 193.9375 229.386719 L 193.9375 251.332031 Z M 171.988281 229.011719 L 171.988281 207.066406 L 193.9375 207.066406 L 193.9375 229.011719 Z M 171.988281 206.695312 L 171.988281 184.75 L 193.9375 184.75 L 193.9375 206.695312 Z M 171.617188 206.695312 L 149.664062 206.695312 L 149.664062 184.75 L 171.617188 184.75 Z M 171.617188 207.066406 L 171.617188 229.011719 L 149.664062 229.011719 L 149.664062 207.066406 Z M 171.617188 229.386719 L 171.617188 251.332031 L 149.664062 251.332031 L 149.664062 229.386719 Z M 171.617188 251.703125 L 171.617188 273.648438 L 149.664062 273.648438 L 149.664062 251.703125 Z M 171.617188 274.019531 L 171.617188 295.964844 L 149.664062 295.964844 L 149.664062 274.019531 Z M 171.617188 296.335938 L 171.617188 318.285156 L 149.664062 318.285156 L 149.664062 296.335938 Z M 171.617188 318.65625 L 171.617188 340.601562 L 149.664062 340.601562 L 149.664062 318.65625 Z M 171.988281 318.65625 L 193.9375 318.65625 L 193.9375 340.601562 L 171.988281 340.601562 Z M 194.3125 318.65625 L 216.261719 318.65625 L 216.261719 340.601562 L 194.3125 340.601562 Z M 194.3125 318.285156 L 194.3125 296.335938 L 216.261719 296.335938 L 216.261719 318.285156 Z M 194.3125 295.964844 L 194.3125 274.019531 L 216.261719 274.019531 L 216.261719 295.964844 Z M 194.3125 273.648438 L 194.3125 251.703125 L 216.261719 251.703125 L 216.261719 273.648438 Z M 194.3125 251.332031 L 194.3125 229.386719 L 216.261719 229.386719 L 216.261719 251.332031 Z M 194.3125 229.011719 L 194.3125 207.066406 L 216.261719 207.066406 L 216.261719 229.011719 Z M 194.3125 206.695312 L 194.3125 184.75 L 216.261719 184.75 L 216.261719 206.695312 Z M 194.3125 184.378906 L 194.3125 162.433594 L 216.261719 162.433594 L 216.261719 184.378906 Z M 193.9375 184.378906 L 171.988281 184.378906 L 171.988281 162.433594 L 193.9375 162.433594 Z M 171.617188 184.378906 L 149.664062 184.378906 L 149.664062 162.433594 L 171.617188 162.433594 Z M 149.292969 184.378906 L 127.34375 184.378906 L 127.34375 162.433594 L 149.292969 162.433594 Z M 149.292969 184.75 L 149.292969 206.695312 L 127.34375 206.695312 L 127.34375 184.75 Z M 149.292969 207.066406 L 149.292969 229.011719 L 127.34375 229.011719 L 127.34375 207.066406 Z M 149.292969 229.386719 L 149.292969 251.332031 L 127.34375 251.332031 L 127.34375 229.386719 Z M 149.292969 251.703125 L 149.292969 273.648438 L 127.34375 273.648438 L 127.34375 251.703125 Z M 149.292969 274.019531 L 149.292969 295.964844 L 127.34375 295.964844 L 127.34375 274.019531 Z M 149.292969 296.335938 L 149.292969 318.285156 L 127.34375 318.285156 L 127.34375 296.335938 Z M 149.292969 318.65625 L 149.292969 340.601562 L 127.34375 340.601562 L 127.34375 318.65625 Z M 149.292969 340.972656 L 149.292969 362.917969 L 127.34375 362.917969 L 127.34375 340.972656 Z M 149.664062 340.972656 L 171.617188 340.972656 L 171.617188 362.917969 L 149.664062 362.917969 Z M 171.988281 340.972656 L 193.9375 340.972656 L 193.9375 362.917969 L 171.988281 362.917969 Z M 194.3125 340.972656 L 216.261719 340.972656 L 216.261719 362.917969 L 194.3125 362.917969 Z M 216.632812 340.972656 L 238.585938 340.972656 L 238.585938 362.917969 L 216.632812 362.917969 Z M 216.632812 340.601562 L 216.632812 318.65625 L 238.585938 318.65625 L 238.585938 340.601562 Z M 216.632812 318.285156 L 216.632812 296.335938 L 238.585938 296.335938 L 238.585938 318.285156 Z M 216.632812 295.964844 L 216.632812 274.019531 L 238.585938 274.019531 L 238.585938 295.964844 Z M 216.632812 273.648438 L 216.632812 251.703125 L 238.585938 251.703125 L 238.585938 273.648438 Z M 216.632812 251.332031 L 216.632812 229.386719 L 238.585938 229.386719 L 238.585938 251.332031 Z M 216.632812 229.011719 L 216.632812 207.066406 L 238.585938 207.066406 L 238.585938 229.011719 Z M 216.632812 206.695312 L 216.632812 184.75 L 238.585938 184.75 L 238.585938 206.695312 Z M 216.632812 184.378906 L 216.632812 162.433594 L 238.585938 162.433594 L 238.585938 184.378906 Z M 216.632812 162.058594 L 216.632812 140.113281 L 238.585938 140.113281 L 238.585938 162.058594 Z M 216.261719 162.058594 L 194.3125 162.058594 L 194.3125 140.113281 L 216.261719 140.113281 Z M 193.9375 162.058594 L 171.988281 162.058594 L 171.988281 140.113281 L 193.9375 140.113281 Z M 171.617188 162.058594 L 149.664062 162.058594 L 149.664062 140.113281 L 171.617188 140.113281 Z M 149.292969 162.058594 L 127.34375 162.058594 L 127.34375 140.113281 L 149.292969 140.113281 Z M 126.96875 162.058594 L 105.019531 162.058594 L 105.019531 140.113281 L 126.96875 140.113281 Z M 126.96875 162.433594 L 126.96875 184.378906 L 105.019531 184.378906 L 105.019531 162.433594 Z M 126.96875 184.75 L 126.96875 206.695312 L 105.019531 206.695312 L 105.019531 184.75 Z M 126.96875 207.066406 L 126.96875 229.011719 L 105.019531 229.011719 L 105.019531 207.066406 Z M 126.96875 229.386719 L 126.96875 251.332031 L 105.019531 251.332031 L 105.019531 229.386719 Z M 126.96875 251.703125 L 126.96875 273.648438 L 105.019531 273.648438 L 105.019531 251.703125 Z M 126.96875 274.019531 L 126.96875 295.964844 L 105.019531 295.964844 L 105.019531 274.019531 Z M 126.96875 296.335938 L 126.96875 318.285156 L 105.019531 318.285156 L 105.019531 296.335938 Z M 126.96875 318.65625 L 126.96875 340.601562 L 105.019531 340.601562 L 105.019531 318.65625 Z M 126.96875 340.972656 L 126.96875 362.917969 L 105.019531 362.917969 L 105.019531 340.972656 Z M 126.96875 363.289062 L 126.96875 385.238281 L 105.019531 385.238281 L 105.019531 363.289062 Z M 127.34375 363.289062 L 149.292969 363.289062 L 149.292969 385.238281 L 127.34375 385.238281 Z M 149.664062 363.289062 L 171.617188 363.289062 L 171.617188 385.238281 L 149.664062 385.238281 Z M 171.988281 363.289062 L 193.9375 363.289062 L 193.9375 385.238281 L 171.988281 385.238281 Z M 194.3125 363.289062 L 216.261719 363.289062 L 216.261719 385.238281 L 194.3125 385.238281 Z M 216.632812 363.289062 L 238.585938 363.289062 L 238.585938 385.238281 L 216.632812 385.238281 Z M 238.957031 363.289062 L 260.90625 363.289062 L 260.90625 385.238281 L 238.957031 385.238281 Z M 238.957031 362.917969 L 238.957031 340.972656 L 260.90625 340.972656 L 260.90625 362.917969 Z M 238.957031 340.601562 L 238.957031 318.65625 L 260.90625 318.65625 L 260.90625 340.601562 Z M 238.957031 318.285156 L 238.957031 296.335938 L 260.90625 296.335938 L 260.90625 318.285156 Z M 238.957031 295.964844 L 238.957031 274.019531 L 260.90625 274.019531 L 260.90625 295.964844 Z M 238.957031 273.648438 L 238.957031 251.703125 L 260.90625 251.703125 L 260.90625 273.648438 Z M 238.957031 251.332031 L 238.957031 229.386719 L 260.90625 229.386719 L 260.90625 251.332031 Z M 238.957031 229.011719 L 238.957031 207.066406 L 260.90625 207.066406 L 260.90625 229.011719 Z M 238.957031 206.695312 L 238.957031 184.75 L 260.90625 184.75 L 260.90625 206.695312 Z M 238.957031 184.378906 L 238.957031 162.433594 L 260.90625 162.433594 L 260.90625 184.378906 Z M 238.957031 162.058594 L 238.957031 140.113281 L 260.90625 140.113281 L 260.90625 162.058594 Z M 238.957031 139.742188 L 238.957031 117.796875 L 260.90625 117.796875 L 260.90625 139.742188 Z M 238.585938 139.742188 L 216.632812 139.742188 L 216.632812 117.796875 L 238.585938 117.796875 Z M 216.261719 139.742188 L 194.3125 139.742188 L 194.3125 117.796875 L 216.261719 117.796875 Z M 193.9375 139.742188 L 171.988281 139.742188 L 171.988281 117.796875 L 193.9375 117.796875 Z M 171.617188 139.742188 L 149.664062 139.742188 L 149.664062 117.796875 L 171.617188 117.796875 Z M 149.292969 139.742188 L 127.34375 139.742188 L 127.34375 117.796875 L 149.292969 117.796875 Z M 126.96875 139.742188 L 105.019531 139.742188 L 105.019531 117.796875 L 126.96875 117.796875 Z M 104.648438 139.742188 L 82.695312 139.742188 L 82.695312 117.796875 L 104.648438 117.796875 Z M 104.648438 140.113281 L 104.648438 162.058594 L 82.695312 162.058594 L 82.695312 140.113281 Z M 104.648438 162.433594 L 104.648438 184.378906 L 82.695312 184.378906 L 82.695312 162.433594 Z M 104.648438 184.75 L 104.648438 206.695312 L 82.695312 206.695312 L 82.695312 184.75 Z M 104.648438 207.066406 L 104.648438 229.011719 L 82.695312 229.011719 L 82.695312 207.066406 Z M 104.648438 229.386719 L 104.648438 251.332031 L 82.695312 251.332031 L 82.695312 229.386719 Z M 104.648438 251.703125 L 104.648438 273.648438 L 82.695312 273.648438 L 82.695312 251.703125 Z M 104.648438 274.019531 L 104.648438 295.964844 L 82.695312 295.964844 L 82.695312 274.019531 Z M 104.648438 296.335938 L 104.648438 318.285156 L 82.695312 318.285156 L 82.695312 296.335938 Z M 104.648438 318.65625 L 104.648438 340.601562 L 82.695312 340.601562 L 82.695312 318.65625 Z M 104.648438 340.972656 L 104.648438 362.917969 L 82.695312 362.917969 L 82.695312 340.972656 Z M 104.648438 363.289062 L 104.648438 385.238281 L 82.695312 385.238281 L 82.695312 363.289062 Z M 104.648438 385.609375 L 104.648438 407.554688 L 82.695312 407.554688 L 82.695312 385.609375 Z M 105.019531 385.609375 L 126.96875 385.609375 L 126.96875 407.554688 L 105.019531 407.554688 Z M 127.34375 385.609375 L 149.292969 385.609375 L 149.292969 407.554688 L 127.34375 407.554688 Z M 149.664062 385.609375 L 171.617188 385.609375 L 171.617188 407.554688 L 149.664062 407.554688 Z M 171.988281 385.609375 L 193.9375 385.609375 L 193.9375 407.554688 L 171.988281 407.554688 Z M 194.3125 385.609375 L 216.261719 385.609375 L 216.261719 407.554688 L 194.3125 407.554688 Z M 216.632812 385.609375 L 238.585938 385.609375 L 238.585938 407.554688 L 216.632812 407.554688 Z M 238.957031 385.609375 L 260.90625 385.609375 L 260.90625 407.554688 L 238.957031 407.554688 Z M 261.28125 385.609375 L 283.230469 385.609375 L 283.230469 407.554688 L 261.28125 407.554688 Z M 261.28125 385.238281 L 261.28125 363.289062 L 283.230469 363.289062 L 283.230469 385.238281 Z M 261.28125 362.917969 L 261.28125 340.972656 L 283.230469 340.972656 L 283.230469 362.917969 Z M 261.28125 340.601562 L 261.28125 318.65625 L 283.230469 318.65625 L 283.230469 340.601562 Z M 261.28125 318.285156 L 261.28125 296.335938 L 283.230469 296.335938 L 283.230469 318.285156 Z M 261.28125 295.964844 L 261.28125 274.019531 L 283.230469 274.019531 L 283.230469 295.964844 Z M 261.28125 273.648438 L 261.28125 251.703125 L 283.230469 251.703125 L 283.230469 273.648438 Z M 261.28125 251.332031 L 261.28125 229.386719 L 283.230469 229.386719 L 283.230469 251.332031 Z M 261.28125 229.011719 L 261.28125 207.066406 L 283.230469 207.066406 L 283.230469 229.011719 Z M 261.28125 206.695312 L 261.28125 184.75 L 283.230469 184.75 L 283.230469 206.695312 Z M 261.28125 184.378906 L 261.28125 162.433594 L 283.230469 162.433594 L 283.230469 184.378906 Z M 261.28125 162.058594 L 261.28125 140.113281 L 283.230469 140.113281 L 283.230469 162.058594 Z M 261.28125 139.742188 L 261.28125 117.796875 L 283.230469 117.796875 L 283.230469 139.742188 Z M 261.28125 117.425781 L 261.28125 95.480469 L 283.230469 95.480469 L 283.230469 117.425781 Z M 260.90625 117.425781 L 238.957031 117.425781 L 238.957031 95.480469 L 260.90625 95.480469 Z M 238.585938 117.425781 L 216.632812 117.425781 L 216.632812 95.480469 L 238.585938 95.480469 Z M 216.261719 117.425781 L 194.3125 117.425781 L 194.3125 95.480469 L 216.261719 95.480469 Z M 193.9375 117.425781 L 171.988281 117.425781 L 171.988281 95.480469 L 193.9375 95.480469 Z M 171.617188 117.425781 L 149.664062 117.425781 L 149.664062 95.480469 L 171.617188 95.480469 Z M 149.292969 117.425781 L 127.34375 117.425781 L 127.34375 95.480469 L 149.292969 95.480469 Z M 126.96875 117.425781 L 105.019531 117.425781 L 105.019531 95.480469 L 126.96875 95.480469 Z M 104.648438 117.425781 L 82.695312 117.425781 L 82.695312 95.480469 L 104.648438 95.480469 Z M 82.324219 117.425781 L 60.371094 117.425781 L 60.371094 95.480469 L 82.324219 95.480469 Z M 82.324219 117.796875 L 82.324219 139.742188 L 60.371094 139.742188 L 60.371094 117.796875 Z M 82.324219 140.113281 L 82.324219 162.058594 L 60.371094 162.058594 L 60.371094 140.113281 Z M 82.324219 162.433594 L 82.324219 184.378906 L 60.371094 184.378906 L 60.371094 162.433594 Z M 82.324219 184.75 L 82.324219 206.695312 L 60.371094 206.695312 L 60.371094 184.75 Z M 82.324219 207.066406 L 82.324219 229.011719 L 60.371094 229.011719 L 60.371094 207.066406 Z M 82.324219 229.386719 L 82.324219 251.332031 L 60.371094 251.332031 L 60.371094 229.386719 Z M 82.324219 251.703125 L 82.324219 273.648438 L 60.371094 273.648438 L 60.371094 251.703125 Z M 82.324219 274.019531 L 82.324219 295.964844 L 60.371094 295.964844 L 60.371094 274.019531 Z M 82.324219 296.335938 L 82.324219 318.285156 L 60.371094 318.285156 L 60.371094 296.335938 Z M 82.324219 318.65625 L 82.324219 340.601562 L 60.371094 340.601562 L 60.371094 318.65625 Z M 82.324219 340.972656 L 82.324219 362.917969 L 60.371094 362.917969 L 60.371094 340.972656 Z M 82.324219 363.289062 L 82.324219 385.238281 L 60.371094 385.238281 L 60.371094 363.289062 Z M 82.324219 385.609375 L 82.324219 407.554688 L 60.371094 407.554688 L 60.371094 385.609375 Z M 82.324219 407.925781 L 82.324219 429.871094 L 60.371094 429.871094 L 60.371094 407.925781 Z M 82.695312 407.925781 L 104.648438 407.925781 L 104.648438 429.871094 L 82.695312 429.871094 Z M 105.019531 407.925781 L 126.96875 407.925781 L 126.96875 429.871094 L 105.019531 429.871094 Z M 127.34375 407.925781 L 149.292969 407.925781 L 149.292969 429.871094 L 127.34375 429.871094 Z M 149.664062 407.925781 L 171.617188 407.925781 L 171.617188 429.871094 L 149.664062 429.871094 Z M 171.988281 407.925781 L 193.9375 407.925781 L 193.9375 429.871094 L 171.988281 429.871094 Z M 194.3125 407.925781 L 216.261719 407.925781 L 216.261719 429.871094 L 194.3125 429.871094 Z M 216.632812 407.925781 L 238.585938 407.925781 L 238.585938 429.871094 L 216.632812 429.871094 Z M 238.957031 407.925781 L 260.90625 407.925781 L 260.90625 429.871094 L 238.957031 429.871094 Z M 261.28125 407.925781 L 283.230469 407.925781 L 283.230469 429.871094 L 261.28125 429.871094 Z M 283.601562 407.925781 L 305.554688 407.925781 L 305.554688 429.871094 L 283.601562 429.871094 Z M 283.601562 407.554688 L 283.601562 385.609375 L 305.554688 385.609375 L 305.554688 407.554688 Z M 283.601562 385.238281 L 283.601562 363.289062 L 305.554688 363.289062 L 305.554688 385.238281 Z M 283.601562 362.917969 L 283.601562 340.972656 L 305.554688 340.972656 L 305.554688 362.917969 Z M 283.601562 340.601562 L 283.601562 318.65625 L 305.554688 318.65625 L 305.554688 340.601562 Z M 283.601562 318.285156 L 283.601562 296.335938 L 305.554688 296.335938 L 305.554688 318.285156 Z M 283.601562 295.964844 L 283.601562 274.019531 L 305.554688 274.019531 L 305.554688 295.964844 Z M 283.601562 273.648438 L 283.601562 251.703125 L 305.554688 251.703125 L 305.554688 273.648438 Z M 283.601562 251.332031 L 283.601562 229.386719 L 305.554688 229.386719 L 305.554688 251.332031 Z M 283.601562 229.011719 L 283.601562 207.066406 L 305.554688 207.066406 L 305.554688 229.011719 Z M 283.601562 206.695312 L 283.601562 184.75 L 305.554688 184.75 L 305.554688 206.695312 Z M 283.601562 184.378906 L 283.601562 162.433594 L 305.554688 162.433594 L 305.554688 184.378906 Z M 283.601562 162.058594 L 283.601562 140.113281 L 305.554688 140.113281 L 305.554688 162.058594 Z M 283.601562 139.742188 L 283.601562 117.796875 L 305.554688 117.796875 L 305.554688 139.742188 Z M 283.601562 117.425781 L 283.601562 95.480469 L 305.554688 95.480469 L 305.554688 117.425781 Z M 283.601562 95.105469 L 283.601562 73.160156 L 305.554688 73.160156 L 305.554688 95.105469 Z M 283.230469 95.105469 L 261.28125 95.105469 L 261.28125 73.160156 L 283.230469 73.160156 Z M 260.90625 95.105469 L 238.957031 95.105469 L 238.957031 73.160156 L 260.90625 73.160156 Z M 238.585938 95.105469 L 216.632812 95.105469 L 216.632812 73.160156 L 238.585938 73.160156 Z M 216.261719 95.105469 L 194.3125 95.105469 L 194.3125 73.160156 L 216.261719 73.160156 Z M 193.9375 95.105469 L 171.988281 95.105469 L 171.988281 73.160156 L 193.9375 73.160156 Z M 171.617188 95.105469 L 149.664062 95.105469 L 149.664062 73.160156 L 171.617188 73.160156 Z M 149.292969 95.105469 L 127.34375 95.105469 L 127.34375 73.160156 L 149.292969 73.160156 Z M 126.96875 95.105469 L 105.019531 95.105469 L 105.019531 73.160156 L 126.96875 73.160156 Z M 104.648438 95.105469 L 82.695312 95.105469 L 82.695312 73.160156 L 104.648438 73.160156 Z M 82.324219 95.105469 L 60.371094 95.105469 L 60.371094 73.160156 L 82.324219 73.160156 Z M 60 95.105469 L 38.050781 95.105469 L 38.050781 73.160156 L 60 73.160156 Z M 60 95.480469 L 60 117.425781 L 38.050781 117.425781 L 38.050781 95.480469 Z M 60 117.796875 L 60 139.742188 L 38.050781 139.742188 L 38.050781 117.796875 Z M 60 140.113281 L 60 162.058594 L 38.050781 162.058594 L 38.050781 140.113281 Z M 60 162.433594 L 60 184.378906 L 38.050781 184.378906 L 38.050781 162.433594 Z M 60 184.75 L 60 206.695312 L 38.050781 206.695312 L 38.050781 184.75 Z M 60 207.066406 L 60 229.011719 L 38.050781 229.011719 L 38.050781 207.066406 Z M 60 229.386719 L 60 251.332031 L 38.050781 251.332031 L 38.050781 229.386719 Z M 60 251.703125 L 60 273.648438 L 38.050781 273.648438 L 38.050781 251.703125 Z M 60 274.019531 L 60 295.964844 L 38.050781 295.964844 L 38.050781 274.019531 Z M 60 296.335938 L 60 318.285156 L 38.050781 318.285156 L 38.050781 296.335938 Z M 60 318.65625 L 60 340.601562 L 38.050781 340.601562 L 38.050781 318.65625 Z M 60 340.972656 L 60 362.917969 L 38.050781 362.917969 L 38.050781 340.972656 Z M 60 363.289062 L 60 385.238281 L 38.050781 385.238281 L 38.050781 363.289062 Z M 60 385.609375 L 60 407.554688 L 38.050781 407.554688 L 38.050781 385.609375 Z M 60 407.925781 L 60 429.871094 L 38.050781 429.871094 L 38.050781 407.925781 Z M 60 430.242188 L 60 452.191406 L 38.050781 452.191406 L 38.050781 430.242188 Z M 60.371094 430.242188 L 82.324219 430.242188 L 82.324219 452.191406 L 60.371094 452.191406 Z M 82.695312 430.242188 L 104.648438 430.242188 L 104.648438 452.191406 L 82.695312 452.191406 Z M 105.019531 430.242188 L 126.96875 430.242188 L 126.96875 452.191406 L 105.019531 452.191406 Z M 127.34375 430.242188 L 149.292969 430.242188 L 149.292969 452.191406 L 127.34375 452.191406 Z M 149.664062 430.242188 L 171.617188 430.242188 L 171.617188 452.191406 L 149.664062 452.191406 Z M 171.988281 430.242188 L 193.9375 430.242188 L 193.9375 452.191406 L 171.988281 452.191406 Z M 194.3125 430.242188 L 216.261719 430.242188 L 216.261719 452.191406 L 194.3125 452.191406 Z M 216.632812 430.242188 L 238.585938 430.242188 L 238.585938 452.191406 L 216.632812 452.191406 Z M 238.957031 430.242188 L 260.90625 430.242188 L 260.90625 452.191406 L 238.957031 452.191406 Z M 261.28125 430.242188 L 283.230469 430.242188 L 283.230469 452.191406 L 261.28125 452.191406 Z M 283.601562 430.242188 L 305.554688 430.242188 L 305.554688 452.191406 L 283.601562 452.191406 Z M 305.925781 430.242188 L 327.875 430.242188 L 327.875 452.191406 L 305.925781 452.191406 Z M 305.925781 429.871094 L 305.925781 407.925781 L 327.875 407.925781 L 327.875 429.871094 Z M 305.925781 407.554688 L 305.925781 385.609375 L 327.875 385.609375 L 327.875 407.554688 Z M 305.925781 385.238281 L 305.925781 363.289062 L 327.875 363.289062 L 327.875 385.238281 Z M 305.925781 362.917969 L 305.925781 340.972656 L 327.875 340.972656 L 327.875 362.917969 Z M 305.925781 340.601562 L 305.925781 318.65625 L 327.875 318.65625 L 327.875 340.601562 Z M 305.925781 318.285156 L 305.925781 296.335938 L 327.875 296.335938 L 327.875 318.285156 Z M 305.925781 295.964844 L 305.925781 274.019531 L 327.875 274.019531 L 327.875 295.964844 Z M 305.925781 273.648438 L 305.925781 251.703125 L 327.875 251.703125 L 327.875 273.648438 Z M 305.925781 251.332031 L 305.925781 229.386719 L 327.875 229.386719 L 327.875 251.332031 Z M 305.925781 229.011719 L 305.925781 207.066406 L 327.875 207.066406 L 327.875 229.011719 Z M 305.925781 206.695312 L 305.925781 184.75 L 327.875 184.75 L 327.875 206.695312 Z M 305.925781 184.378906 L 305.925781 162.433594 L 327.875 162.433594 L 327.875 184.378906 Z M 305.925781 162.058594 L 305.925781 140.113281 L 327.875 140.113281 L 327.875 162.058594 Z M 305.925781 139.742188 L 305.925781 117.796875 L 327.875 117.796875 L 327.875 139.742188 Z M 305.925781 117.425781 L 305.925781 95.480469 L 327.875 95.480469 L 327.875 117.425781 Z M 305.925781 95.105469 L 305.925781 73.160156 L 327.875 73.160156 L 327.875 95.105469 Z M 305.554688 50.84375 L 305.554688 72.789062 L 283.601562 72.789062 L 283.601562 50.84375 Z M 283.230469 50.84375 L 283.230469 72.789062 L 261.28125 72.789062 L 261.28125 50.84375 Z M 260.90625 50.84375 L 260.90625 72.789062 L 238.957031 72.789062 L 238.957031 50.84375 Z M 238.585938 50.84375 L 238.585938 72.789062 L 216.632812 72.789062 L 216.632812 50.84375 Z M 216.261719 50.84375 L 216.261719 72.789062 L 194.3125 72.789062 L 194.3125 50.84375 Z M 193.9375 50.84375 L 193.9375 72.789062 L 171.988281 72.789062 L 171.988281 50.84375 Z M 171.617188 50.84375 L 171.617188 72.789062 L 149.664062 72.789062 L 149.664062 50.84375 Z M 149.292969 50.84375 L 149.292969 72.789062 L 127.34375 72.789062 L 127.34375 50.84375 Z M 126.96875 50.84375 L 126.96875 72.789062 L 105.019531 72.789062 L 105.019531 50.84375 Z M 104.648438 50.84375 L 104.648438 72.789062 L 82.695312 72.789062 L 82.695312 50.84375 Z M 82.324219 50.84375 L 82.324219 72.789062 L 60.371094 72.789062 L 60.371094 50.84375 Z M 60 50.84375 L 60 72.789062 L 38.050781 72.789062 L 38.050781 50.84375 Z M 15.726562 50.84375 L 37.679688 50.84375 L 37.679688 72.789062 L 15.726562 72.789062 Z M 15.726562 73.160156 L 37.679688 73.160156 L 37.679688 95.105469 L 15.726562 95.105469 Z M 15.726562 95.480469 L 37.679688 95.480469 L 37.679688 117.425781 L 15.726562 117.425781 Z M 15.726562 117.796875 L 37.679688 117.796875 L 37.679688 139.742188 L 15.726562 139.742188 Z M 15.726562 140.113281 L 37.679688 140.113281 L 37.679688 162.058594 L 15.726562 162.058594 Z M 15.726562 162.433594 L 37.679688 162.433594 L 37.679688 184.378906 L 15.726562 184.378906 Z M 15.726562 184.75 L 37.679688 184.75 L 37.679688 206.695312 L 15.726562 206.695312 Z M 15.726562 207.066406 L 37.679688 207.066406 L 37.679688 229.011719 L 15.726562 229.011719 Z M 15.726562 229.386719 L 37.679688 229.386719 L 37.679688 251.332031 L 15.726562 251.332031 Z M 15.726562 251.703125 L 37.679688 251.703125 L 37.679688 273.648438 L 15.726562 273.648438 Z M 15.726562 274.019531 L 37.679688 274.019531 L 37.679688 295.964844 L 15.726562 295.964844 Z M 15.726562 296.335938 L 37.679688 296.335938 L 37.679688 318.285156 L 15.726562 318.285156 Z M 15.726562 318.65625 L 37.679688 318.65625 L 37.679688 340.601562 L 15.726562 340.601562 Z M 15.726562 340.972656 L 37.679688 340.972656 L 37.679688 362.917969 L 15.726562 362.917969 Z M 15.726562 363.289062 L 37.679688 363.289062 L 37.679688 385.238281 L 15.726562 385.238281 Z M 15.726562 385.609375 L 37.679688 385.609375 L 37.679688 407.554688 L 15.726562 407.554688 Z M 15.726562 407.925781 L 37.679688 407.925781 L 37.679688 429.871094 L 15.726562 429.871094 Z M 15.726562 430.242188 L 37.679688 430.242188 L 37.679688 452.191406 L 15.726562 452.191406 Z M 15.726562 474.507812 L 15.726562 452.5625 L 37.679688 452.5625 L 37.679688 474.507812 Z M 38.050781 474.507812 L 38.050781 452.5625 L 60 452.5625 L 60 474.507812 Z M 60.371094 474.507812 L 60.371094 452.5625 L 82.324219 452.5625 L 82.324219 474.507812 Z M 82.695312 474.507812 L 82.695312 452.5625 L 104.648438 452.5625 L 104.648438 474.507812 Z M 105.019531 474.507812 L 105.019531 452.5625 L 126.96875 452.5625 L 126.96875 474.507812 Z M 127.34375 474.507812 L 127.34375 452.5625 L 149.292969 452.5625 L 149.292969 474.507812 Z M 149.664062 474.507812 L 149.664062 452.5625 L 171.617188 452.5625 L 171.617188 474.507812 Z M 171.988281 474.507812 L 171.988281 452.5625 L 193.9375 452.5625 L 193.9375 474.507812 Z M 194.3125 474.507812 L 194.3125 452.5625 L 216.261719 452.5625 L 216.261719 474.507812 Z M 216.632812 474.507812 L 216.632812 452.5625 L 238.585938 452.5625 L 238.585938 474.507812 Z M 238.957031 474.507812 L 238.957031 452.5625 L 260.90625 452.5625 L 260.90625 474.507812 Z M 261.28125 474.507812 L 261.28125 452.5625 L 283.230469 452.5625 L 283.230469 474.507812 Z M 283.601562 474.507812 L 283.601562 452.5625 L 305.554688 452.5625 L 305.554688 474.507812 Z M 305.925781 474.507812 L 305.925781 452.5625 L 327.875 452.5625 L 327.875 474.507812 Z M 350.199219 474.507812 L 328.25 474.507812 L 328.25 452.5625 L 350.199219 452.5625 Z M 350.199219 452.191406 L 328.25 452.191406 L 328.25 430.242188 L 350.199219 430.242188 Z M 350.199219 429.871094 L 328.25 429.871094 L 328.25 407.925781 L 350.199219 407.925781 Z M 350.199219 407.554688 L 328.25 407.554688 L 328.25 385.609375 L 350.199219 385.609375 Z M 350.199219 385.238281 L 328.25 385.238281 L 328.25 363.289062 L 350.199219 363.289062 Z M 350.199219 362.917969 L 328.25 362.917969 L 328.25 340.972656 L 350.199219 340.972656 Z M 350.199219 340.601562 L 328.25 340.601562 L 328.25 318.65625 L 350.199219 318.65625 Z M 350.199219 318.285156 L 328.25 318.285156 L 328.25 296.335938 L 350.199219 296.335938 Z M 350.199219 295.964844 L 328.25 295.964844 L 328.25 274.019531 L 350.199219 274.019531 Z M 350.199219 273.648438 L 328.25 273.648438 L 328.25 251.703125 L 350.199219 251.703125 Z M 350.199219 251.332031 L 328.25 251.332031 L 328.25 229.386719 L 350.199219 229.386719 Z M 350.199219 229.011719 L 328.25 229.011719 L 328.25 207.066406 L 350.199219 207.066406 Z M 350.199219 206.695312 L 328.25 206.695312 L 328.25 184.75 L 350.199219 184.75 Z M 350.199219 184.378906 L 328.25 184.378906 L 328.25 162.433594 L 350.199219 162.433594 Z M 350.199219 162.058594 L 328.25 162.058594 L 328.25 140.113281 L 350.199219 140.113281 Z M 350.199219 139.742188 L 328.25 139.742188 L 328.25 117.796875 L 350.199219 117.796875 Z M 350.199219 117.425781 L 328.25 117.425781 L 328.25 95.480469 L 350.199219 95.480469 Z M 350.199219 95.105469 L 328.25 95.105469 L 328.25 73.160156 L 350.199219 73.160156 Z M 350.199219 72.789062 L 328.25 72.789062 L 328.25 50.84375 L 350.199219 50.84375 Z M 350.199219 72.789062 " fill-opacity="0.5" fill-rule="nonzero"/><path fill="#272324" d="M 311.324219 21.648438 L 311.324219 25.316406 L 307.652344 25.316406 L 307.652344 21.648438 L 311.324219 21.648438 M 314.257812 18.710938 L 304.71875 18.710938 L 304.71875 28.25 L 314.257812 28.25 Z M 292.875 28.25 L 283.332031 28.25 L 283.332031 25.316406 L 292.875 25.316406 Z M 333.074219 23.480469 L 336.042969 26.449219 L 333.964844 28.523438 L 331 25.558594 L 328.03125 28.523438 L 325.957031 26.449219 L 328.921875 23.480469 L 325.957031 20.515625 L 328.03125 18.441406 L 331 21.40625 L 333.964844 18.441406 L 336.042969 20.515625 Z M 363.242188 11.746094 C 359.472656 4.753906 352.082031 0 343.578125 0 L 22.347656 0 C 10.019531 0 0.0234375 9.992188 0.0234375 22.316406 L 0.0234375 464.382812 C 0.0234375 472.882812 4.777344 480.273438 11.773438 484.039062 C 15.546875 491.023438 22.925781 495.773438 31.421875 495.773438 L 352.652344 495.773438 C 364.984375 495.773438 374.976562 485.78125 374.976562 473.453125 L 374.976562 31.390625 C 374.976562 22.894531 370.226562 15.519531 363.242188 11.746094 Z M 5.976562 22.316406 C 5.976562 13.292969 13.320312 5.953125 22.347656 5.953125 L 343.578125 5.953125 C 352.605469 5.953125 359.949219 13.292969 359.949219 22.316406 L 359.949219 38.652344 L 5.976562 38.652344 Z M 5.976562 464.382812 L 5.976562 44.636719 L 359.949219 44.636719 L 359.949219 464.382812 C 359.949219 473.40625 352.605469 480.746094 343.578125 480.746094 L 22.347656 480.746094 C 13.320312 480.746094 5.976562 473.40625 5.976562 464.382812 Z M 5.976562 464.382812 " fill-opacity="1" fill-rule="nonzero"/><g fill="#000000" fill-opacity="1"><g transform="translate(50.900392, 269.750008)"><g><path d="M 20 0 L 20 -108.796875 L -4.203125 -108.796875 L -4.203125 -111.796875 L 20 -140 L 48 -140 L 48 0 Z M 20 0 "/></g></g></g><g fill="#000000" fill-opacity="1"><g transform="translate(109.498818, 269.750008)"><g><path d="M 3.40625 0 L 3.40625 -3.203125 L 59.40625 -69.203125 C 63.664062 -74.128906 67.0625 -78.828125 69.59375 -83.296875 C 72.132812 -87.765625 73.40625 -92.132812 73.40625 -96.40625 C 73.40625 -102.40625 71.601562 -107.269531 68 -111 C 64.394531 -114.726562 59.328125 -116.59375 52.796875 -116.59375 C 46.265625 -116.59375 41.234375 -114.625 37.703125 -110.6875 C 34.171875 -106.757812 32.40625 -101.195312 32.40625 -94 L 3.40625 -94 C 3.40625 -103.601562 5.570312 -112.070312 9.90625 -119.40625 C 14.238281 -126.738281 20.132812 -132.4375 27.59375 -136.5 C 35.0625 -140.5625 43.597656 -142.59375 53.203125 -142.59375 C 62.929688 -142.59375 71.460938 -140.59375 78.796875 -136.59375 C 86.128906 -132.59375 91.894531 -127.226562 96.09375 -120.5 C 100.300781 -113.769531 102.40625 -106.269531 102.40625 -98 C 102.40625 -92.394531 101.535156 -87.09375 99.796875 -82.09375 C 98.066406 -77.09375 94.867188 -71.660156 90.203125 -65.796875 L 68.40625 -37.40625 C 66.664062 -35.269531 64.796875 -33.066406 62.796875 -30.796875 C 60.796875 -28.535156 58.53125 -26.46875 56 -24.59375 L 103.203125 -24.59375 L 103.203125 0 Z M 3.40625 0 "/></g></g></g><g fill="#000000" fill-opacity="1"><g transform="translate(219.695893, 269.750008)"><g><path d="M 51.40625 2.59375 C 36.46875 2.59375 24.5 -1.203125 15.5 -8.796875 C 6.5 -16.398438 2 -27.398438 2 -41.796875 L 30 -41.796875 C 30 -34.734375 31.898438 -29.597656 35.703125 -26.390625 C 39.503906 -23.191406 44.738281 -21.59375 51.40625 -21.59375 C 58.070312 -21.59375 63.003906 -23.328125 66.203125 -26.796875 C 69.398438 -30.265625 71 -34.332031 71 -39 C 71 -46.0625 68.832031 -51.425781 64.5 -55.09375 C 60.164062 -58.757812 54.53125 -60.53125 47.59375 -60.40625 L 33.40625 -60.203125 L 33.40625 -83.203125 L 47.59375 -83.203125 C 54.394531 -83.203125 59.828125 -84.703125 63.890625 -87.703125 C 67.960938 -90.703125 70 -95.132812 70 -101 C 70 -105.800781 68.5 -109.898438 65.5 -113.296875 C 62.5 -116.703125 57.800781 -118.40625 51.40625 -118.40625 C 45.132812 -118.40625 40.128906 -116.90625 36.390625 -113.90625 C 32.660156 -110.90625 30.796875 -106.269531 30.796875 -100 L 3.796875 -100 C 3.796875 -113.46875 8.128906 -123.929688 16.796875 -131.390625 C 25.460938 -138.859375 37 -142.59375 51.40625 -142.59375 C 61.132812 -142.59375 69.363281 -140.789062 76.09375 -137.1875 C 82.832031 -133.59375 88 -128.757812 91.59375 -122.6875 C 95.195312 -116.625 97 -109.796875 97 -102.203125 C 97 -95.671875 95.695312 -89.90625 93.09375 -84.90625 C 90.5 -79.90625 86.269531 -75.867188 80.40625 -72.796875 C 86.269531 -69.734375 90.800781 -65.265625 94 -59.390625 C 97.195312 -53.523438 98.796875 -46.257812 98.796875 -37.59375 C 98.796875 -30.132812 96.925781 -23.335938 93.1875 -17.203125 C 89.457031 -11.066406 84.09375 -6.234375 77.09375 -2.703125 C 70.09375 0.828125 61.53125 2.59375 51.40625 2.59375 Z M 51.40625 2.59375 "/></g></g></g></svg>